<svg xmlns="http://www.w3.org/2000/svg" width="64" height="64" class="uil-default" viewBox="0 0 100 100" fill="#00b2ff">
  <rect width="7" height="20" x="47" y="10" rx="5" ry="5">
    <animate attributeName="opacity" dur="1s" from="1" repeatCount="indefinite" to="0"/>
  </rect>
  <rect width="7" height="20" x="47" y="40" rx="5" ry="5" transform="rotate(30 106 65)">
    <animate attributeName="opacity" begin="0.08333s" dur="1s" from="1" repeatCount="indefinite" to="0"/>
  </rect>
  <rect width="7" height="20" x="47" y="40" rx="5" ry="5" transform="rotate(60 76 65)">
    <animate attributeName="opacity" begin="0.1666s" dur="1s" from="1" repeatCount="indefinite" to="0"/>
  </rect>
  <rect width="7" height="20" x="47" y="40" rx="5" ry="5" transform="rotate(90 65 65)">
    <animate attributeName="opacity" begin="0.25s" dur="1s" from="1" repeatCount="indefinite" to="0"/>
  </rect>
  <rect width="7" height="20" x="47" y="40" rx="5" ry="5" transform="rotate(120 59 65)">
    <animate attributeName="opacity" begin="0.333s" dur="1s" from="1" repeatCount="indefinite" to="0"/>
  </rect>
  <rect width="7" height="20" x="47" y="40" rx="5" ry="5" transform="rotate(150 54 65)">
    <animate attributeName="opacity" begin="0.41666s" dur="1s" from="1" repeatCount="indefinite" to="0"/>
  </rect>
  <rect width="7" height="20" x="47" y="40" rx="5" ry="5" transform="rotate(180 50 65)">
    <animate attributeName="opacity" begin="0.5s" dur="1s" from="1" repeatCount="indefinite" to="0"/>
  </rect>
  <rect width="7" height="20" x="47" y="40" rx="5" ry="5" transform="rotate(-150 46 65)">
    <animate attributeName="opacity" begin="0.58333s" dur="1s" from="1" repeatCount="indefinite" to="0"/>
  </rect>
  <rect width="7" height="20" x="47" y="40" rx="5" ry="5" transform="rotate(-120 41 65)">
    <animate attributeName="opacity" begin="0.666s" dur="1s" from="1" repeatCount="indefinite" to="0"/>
  </rect>
  <rect width="7" height="20" x="47" y="40" rx="5" ry="5" transform="rotate(-90 35 65)">
    <animate attributeName="opacity" begin="0.75s" dur="1s" from="1" repeatCount="indefinite" to="0"/>
  </rect>
  <rect width="7" height="20" x="47" y="40" rx="5" ry="5" transform="rotate(-60 24 65)">
    <animate attributeName="opacity" begin="0.8333s" dur="1s" from="1" repeatCount="indefinite" to="0"/>
  </rect>
  <rect width="7" height="20" x="47" y="40" rx="5" ry="5" transform="rotate(-30 -6 65)">
    <animate attributeName="opacity" begin="0.91666s" dur="1s" from="1" repeatCount="indefinite" to="0"/>
  </rect>
</svg>
